HIERARCHY
ROOT Hips
{
 OFFSET 0.000000 0.000000 0.000000
 CHANNELS 6 Xposition Yposition Zposition Yrotation Xrotation Zrotation
 JOINT Chest
 {
  OFFSET 0.000000 9.585900 0.002600
  CHANNELS 3 Yrotation Xrotation Zrotation
  JOINT Chest2
  {
   OFFSET 0.000000 9.601200 -0.005300
   CHANNELS 3 Yrotation Xrotation Zrotation
   JOINT Chest3
   {
    OFFSET 0.000000 9.561800 0.000000
    CHANNELS 3 Yrotation Xrotation Zrotation
    JOINT Chest4
    {
     OFFSET 0.000000 9.552100 0.000000
     CHANNELS 3 Yrotation Xrotation Zrotation
     JOINT Neck
     {
      OFFSET 0.000000 14.453000 0.000000
      CHANNELS 3 Yrotation Xrotation Zrotation
      JOINT Head
      {
       OFFSET 0.000000 8.936500 -0.011300
       CHANNELS 3 Yrotation Xrotation Zrotation
       End Site
       {
        OFFSET 0.000000 17.073600 -0.006000
       }
      }
     }
     JOINT RightCollar
     {
      OFFSET -2.921100 9.558500 0.000000
      CHANNELS 3 Yrotation Xrotation Zrotation
      JOINT RightShoulder
      {
       OFFSET -13.519700 0.000000 0.000000
       CHANNELS 3 Yrotation Xrotation Zrotation
       JOINT RightElbow
       {
        OFFSET 0.000000 -29.696600 0.000000
        CHANNELS 3 Yrotation Xrotation Zrotation
        JOINT RightWrist
        {
         OFFSET 0.000000 -24.004700 0.000000
         CHANNELS 3 Yrotation Xrotation Zrotation
         End Site
         {
          OFFSET 0.000000 -17.728500 0.000000
         }
        }
       }
      }
     }
     JOINT LeftCollar
     {
      OFFSET 2.921100 9.558500 0.000000
      CHANNELS 3 Yrotation Xrotation Zrotation
      JOINT LeftShoulder
      {
       OFFSET 13.519700 0.000000 0.000000
       CHANNELS 3 Yrotation Xrotation Zrotation
       JOINT LeftElbow
       {
        OFFSET 0.000000 -29.696600 0.000000
        CHANNELS 3 Yrotation Xrotation Zrotation
        JOINT LeftWrist
        {
         OFFSET 0.000000 -24.004700 0.000000
         CHANNELS 3 Yrotation Xrotation Zrotation
         End Site
         {
          OFFSET 0.000000 -17.728500 0.000000
         }
        }
       }
      }
     }
    }
   }
  }
 }
 JOINT RightHip
 {
  OFFSET -7.771700 -0.012900 -0.001300
  CHANNELS 3 Yrotation Xrotation Zrotation
  JOINT RightKnee
  {
   OFFSET 0.000000 -40.869800 0.001200
   CHANNELS 3 Yrotation Xrotation Zrotation
   JOINT RightAnkle
   {
    OFFSET 0.000000 -39.717900 0.002100
    CHANNELS 3 Yrotation Xrotation Zrotation
    JOINT RightToe
    {
     OFFSET 0.000000 -4.965400 11.033500
     CHANNELS 3 Yrotation Xrotation Zrotation
     End Site
     {
      OFFSET 0.000000 -1.423100 5.872300
     }
    }
   }
  }
 }
 JOINT LeftHip
 {
  OFFSET 7.771700 -0.012900 -0.001300
  CHANNELS 3 Yrotation Xrotation Zrotation
  JOINT LeftKnee
  {
   OFFSET 0.000000 -40.869800 0.001200
   CHANNELS 3 Yrotation Xrotation Zrotation
   JOINT LeftAnkle
   {
    OFFSET 0.000000 -39.717900 0.002100
    CHANNELS 3 Yrotation Xrotation Zrotation
    JOINT LeftToe
    {
     OFFSET 0.000000 -4.965400 11.033500
     CHANNELS 3 Yrotation Xrotation Zrotation
     End Site
     {
      OFFSET 0.000000 -1.423100 5.872300
     }
    }
   }
  }
 }
}
MOTION
Frames: 16
Frame Time: 0.008333
0.000000 85.388000 0.000000 0.000000 -5.767877 0.000000 0.000000 11.653817 0.000000 0.000000 -5.885947 0.000000 0.000000 -0.000000 0.000000 0.000000 -0.000000 0.000000 0.000000 12.528835 0.000000 0.000000 0.711642 0.000000 0.000000 -0.000000 0.000000 0.000000 0.000000 -90.000000 0.000000 -2.309062 0.000000 0.000000 2.309062 0.000000 0.000000 -0.000000 0.000000 0.000000 -0.000000 90.000000 0.000000 -2.309062 0.000000 0.000000 2.309062 0.000000 0.000000 8.520406 0.000000 0.000000 1.905762 0.000000 -0.000000 -4.658285 0.000000 0.000000 -0.000000 0.000000 0.000000 8.520406 0.000000 0.000000 1.905762 0.000000 -0.000000 -4.658285 0.000000 0.000000 -0.000000 0.000000
-48.378828 46.500056 10.782190 176.317282 -32.165015 -3.001210 -0.811078 19.061291 1.921667 -0.142309 2.286585 0.285397 -0.230642 3.690817 0.434802 -0.812033 16.497636 1.910092 -4.526000 20.644944 0.000318 -8.224546 2.657868 1.315398 -0.060061 1.762249 -1.823013 -0.046821 -7.765362 -16.532997 -56.976851 -56.439837 101.681484 -3.682911 0.863690 -20.995327 -0.932529 -0.115879 0.524765 -0.711061 -5.325744 14.314432 60.923694 -51.592639 -101.282232 6.310902 6.490187 12.591681 -1.354798 -55.390406 -8.234925 -156.410834 80.080683 -147.833885 -8.515299 -11.481376 -5.402428 0.091404 -0.251082 0.036038 0.140914 -56.866262 11.339087 -110.947093 81.519651 -115.130649 5.377720 -6.409818 5.331755 0.018175 0.290243 0.005343
-48.379360 46.501101 10.786032 176.322285 -32.164270 -3.009114 -0.818869 19.035593 1.911086 -0.135846 2.282791 0.288969 -0.237647 3.679114 0.428219 -0.815049 16.479608 1.903554 -4.658014 20.670379 -0.002768 -8.462528 2.711528 1.346275 -0.029993 1.764365 -1.803573 -0.002067 -7.729961 -16.480433 -56.825913 -56.423125 101.603206 -3.655161 0.844303 -21.001778 -0.919568 -0.101290 0.513642 -0.647818 -5.278886 14.227753 60.891113 -51.487754 -101.258869 6.402363 6.464794 12.770311 -1.365823 -55.387558 -8.222376 -156.351225 80.085265 -147.773628 -8.511342 -11.478223 -5.402283 0.110474 -0.246681 0.037220 0.140776 -56.868334 11.340431 -110.924174 81.525871 -115.106910 5.374644 -6.402426 5.336552 0.011493 0.290415 0.006817
-48.376972 46.502532 10.790535 176.327051 -32.163334 -3.038728 -0.819667 19.015996 1.925925 -0.136901 2.270354 0.283249 -0.234213 3.689881 0.436090 -0.816333 16.469911 1.900691 -4.815350 20.662608 -0.014399 -8.726027 2.767991 1.378950 -0.012348 1.751360 -1.796539 0.049206 -7.706762 -16.427367 -56.665255 -56.395971 101.525633 -3.631624 0.817198 -21.016958 -0.912071 -0.085823 0.512278 -0.575394 -5.255236 14.138174 60.864342 -51.335306 -101.245832 6.502430 6.427498 12.955324 -1.410918 -55.384077 -8.171182 -156.346533 80.097999 -147.764763 -8.500844 -11.494220 -5.400881 0.076560 -0.222318 0.032434 0.108960 -56.871002 11.381727 -110.909517 81.527957 -115.096001 5.391246 -6.370102 5.352119 -0.013914 0.260648 -0.000112
-48.378322 46.503618 10.795428 176.316158 -32.158487 -3.042871 -0.809366 19.004336 1.931962 -0.142932 2.244113 0.270378 -0.230079 3.701139 0.443381 -0.836230 16.406469 1.876093 -4.969347 20.708043 -0.016212 -9.012621 2.830082 1.413373 0.027923 1.773664 -1.778711 0.091070 -7.664110 -16.371414 -56.484774 -56.354343 101.441751 -3.616177 0.786287 -21.037983 -0.880476 -0.121994 0.467097 -0.497587 -5.120343 14.103954 60.824881 -51.157324 -101.234737 6.613215 6.376190 13.148659 -1.418175 -55.386261 -8.151067 -156.375842 80.119779 -147.788945 -8.525267 -11.488201 -5.401605 0.082078 -0.217726 0.029408 0.149245 -56.879163 11.368943 -110.883405 81.528918 -115.056248 5.386724 -6.366751 5.362147 -0.006811 0.263066 0.001209
-48.380227 46.505258 10.799422 176.308453 -32.158284 -3.050716 -0.810191 18.973012 1.924395 -0.143073 2.237362 0.268940 -0.247156 3.638995 0.416676 -0.827294 16.416019 1.880215 -5.134686 20.759936 -0.017942 -9.320632 2.902160 1.449509 0.073167 1.783253 -1.763123 0.126492 -7.603483 -16.312616 -56.282138 -56.296897 101.348833 -3.610559 0.751333 -21.062922 -0.845915 -0.118958 0.446286 -0.394850 -5.015371 14.045424 60.773356 -50.958564 -101.228065 6.738237 6.308474 13.359752 -1.429895 -55.383729 -8.130854 -156.406879 80.136546 -147.816957 -8.525608 -11.480304 -5.407684 0.072643 -0.217366 0.030569 0.148100 -56.880058 11.383789 -110.869672 81.531569 -115.041855 5.382123 -6.364677 5.361031 -0.004600 0.264430 0.005936
-48.385275 46.507295 10.802021 176.310698 -32.162970 -3.050506 -0.846816 18.914816 1.869418 -0.142922 2.221751 0.265395 -0.230522 3.666009 0.435205 -0.822790 16.411746 1.880030 -5.324849 20.779576 -0.030070 -9.647828 2.985575 1.486489 0.095307 1.807481 -1.751232 0.172319 -7.592371 -16.264904 -56.067266 -56.227970 101.253426 -3.613590 0.716349 -21.089577 -0.824765 -0.134253 0.424931 -0.268472 -4.925396 13.973151 60.709801 -50.737737 -101.222781 6.874168 6.223427 13.596325 -1.433418 -55.373439 -8.131748 -156.403359 80.146797 -147.814396 -8.525354 -11.484994 -5.409814 0.095487 -0.210748 0.033027 0.160608 -56.875523 11.376560 -110.849660 81.533756 -115.029485 5.364695 -6.356747 5.374385 -0.017585 0.261290 0.005383
-48.389971 46.508278 10.805843 176.302778 -32.156737 -3.053406 -0.854608 18.875240 1.848658 -0.142807 2.214034 0.263560 -0.230343 3.653891 0.432237 -0.805696 16.446317 1.897925 -5.539016 20.763820 -0.055155 -9.990363 3.078789 1.524001 0.104635 1.791671 -1.753240 0.219156 -7.579754 -16.220168 -55.843796 -56.154768 101.157403 -3.622207 0.688210 -21.112959 -0.817841 -0.189257 0.391334 -0.127223 -4.835262 13.900205 60.636007 -50.493453 -101.218945 7.020828 6.116212 13.862977 -1.435324 -55.375331 -8.119685 -156.403369 80.165584 -147.815716 -8.529133 -11.480898 -5.406814 0.085592 -0.204656 0.032469 0.178626 -56.883437 11.383596 -110.807235 81.536993 -115.001288 5.361440 -6.347585 5.401612 -0.027369 0.258760 0.000278
-48.392294 46.509351 10.809345 176.284980 -32.151761 -3.070825 -0.840584 18.844968 1.855966 -0.145683 2.197853 0.255225 -0.230262 3.641689 0.429014 -0.812919 16.423631 1.890522 -5.734137 20.812119 -0.068134 -10.344168 3.181729 1.561610 0.129610 1.738848 -1.759117 0.272164 -7.474877 -16.154978 -55.607794 -56.082146 101.054527 -3.631034 0.669985 -21.125322 -0.793692 -0.148407 0.398050 0.023025 -4.784568 13.807219 60.553988 -50.231039 -101.213443 7.183041 5.978675 14.167584 -1.457002 -55.374920 -8.070459 -156.463665 80.196709 -147.878011 -8.545764 -11.467556 -5.402952 0.072026 -0.202586 0.031250 0.172107 -56.891523 11.428939 -110.787515 81.532337 -114.987910 5.358126 -6.346291 5.415303 -0.036602 0.258780 0.002680
-48.396656 46.510693 10.811421 176.281578 -32.152220 -3.088437 -0.833766 18.837225 1.869367 -0.155542 2.164269 0.233640 -0.230211 3.628992 0.425545 -0.813532 16.401647 1.880889 -5.937473 20.865125 -0.078974 -10.702703 3.296831 1.596690 0.145859 1.758403 -1.742824 0.329887 -7.448577 -16.114396 -55.358499 -56.013824 100.941672 -3.636829 0.665504 -21.124348 -0.777912 -0.163776 0.376814 0.169791 -4.681138 13.745699 60.468714 -49.959131 -101.198801 7.368037 5.809083 14.514105 -1.451529 -55.368456 -8.056313 -156.504204 80.212458 -147.907117 -8.557632 -11.462657 -5.396990 0.080092 -0.201466 0.032110 0.172414 -56.896062 11.449705 -110.792393 81.527505 -114.988751 5.352490 -6.342720 5.419505 -0.025999 0.256681 0.007552
-48.402276 46.511617 10.813387 176.278362 -32.150587 -3.103292 -0.838059 18.802498 1.857333 -0.158054 2.154888 0.230019 -0.226582 3.630154 0.430261 -0.842111 16.302580 1.827509 -6.114663 20.990909 -0.068728 -11.059419 3.426458 1.625610 0.185195 1.862378 -1.690073 0.386834 -7.449598 -16.089560 -55.099017 -55.957706 100.821914 -3.639441 0.680889 -21.119807 -0.734990 -0.111652 0.381860 0.303187 -4.584975 13.687517 60.382449 -49.679149 -101.176272 7.577961 5.606737 14.902327 -1.461968 -55.366780 -8.031564 -156.533112 80.228017 -147.936001 -8.573326 -11.456468 -5.392048 0.079210 -0.204619 0.034289 0.181682 -56.903228 11.462281 -110.796459 81.522453 -114.986794 5.339060 -6.338017 5.426299 -0.005820 0.254113 0.008901
-48.409884 46.511796 10.815664 176.270952 -32.144212 -3.108101 -0.859690 18.726534 1.801048 -0.143076 2.181452 0.254949 -0.215562 3.659914 0.452356 -0.874816 16.212601 1.778271 -6.305134 21.084803 -0.077581 -11.414011 3.571668 1.646881 0.208436 1.887060 -1.671890 0.453789 -7.414397 -16.056568 -54.835547 -55.922002 100.701152 -3.632250 0.719484 -21.120309 -0.698359 -0.041583 0.403197 0.433720 -4.549017 13.601115 60.295704 -49.389230 -101.153411 7.804092 5.373154 15.329198 -1.465729 -55.371768 -8.016678 -156.553944 80.243405 -147.959750 -8.585816 -11.453031 -5.391051 0.079705 -0.198682 0.037395 0.207432 -56.915047 11.466081 -110.805496 81.521282 -115.010486 5.327802 -6.333411 5.463315 -0.012801 0.249617 0.001459
-48.413244 46.512439 10.817553 176.267107 -32.142314 -3.143100 -0.855980 18.690997 1.806148 -0.143345 2.173059 0.252769 -0.217517 3.645720 0.450845 -0.880676 16.187956 1.762969 -6.505120 21.164765 -0.096965 -11.767440 3.731595 1.660644 0.204966 1.832759 -1.682929 0.538856 -7.325936 -16.010615 -54.578398 -55.907918 100.590249 -3.608791 0.784136 -21.130753 -0.661030 -0.038333 0.378239 0.545589 -4.473448 13.561603 60.212197 -49.096015 -101.130104 8.034542 5.116595 15.786411 -1.516485 -55.369133 -7.949337 -156.548598 80.257988 -147.956400 -8.588473 -11.445360 -5.391684 0.080257 -0.201542 0.038309 0.183015 -56.923379 11.519351 -110.824824 81.513931 -115.023547 5.321018 -6.334083 5.462439 -0.007008 0.250336 0.010179
-48.420192 46.513210 10.818263 176.266569 -32.145666 -3.160005 -0.857545 18.662893 1.791370 -0.143615 2.164723 0.250428 -0.223183 3.628710 0.446904 -0.882468 16.166360 1.748336 -6.704290 21.252499 -0.119675 -12.118013 3.905822 1.666857 0.208777 1.814286 -1.673520 0.599866 -7.264900 -15.986026 -54.338912 -55.924522 100.514072 -3.568704 0.877638 -21.155062 -0.623301 -0.035138 0.353472 0.641899 -4.407427 13.531010 60.135346 -48.809170 -101.097552 8.265201 4.845888 16.266952 -1.544717 -55.361103 -7.923125 -156.575901 80.270384 -147.986294 -8.583852 -11.447845 -5.392898 0.072192 -0.199401 0.037323 0.184560 -56.923180 11.537710 -110.823906 81.507293 -115.018957 5.299472 -6.332776 5.466505 0.006424 0.251061 0.016505
-48.428561 46.513612 10.819003 176.267530 -32.147556 -3.170154 -0.857706 18.649756 1.785676 -0.144545 2.141357 0.233908 -0.227974 3.614818 0.442224 -0.884792 16.142320 1.733055 -6.901721 21.348891 -0.146371 -12.463858 4.095874 1.664296 0.207374 1.810531 -1.653133 0.674993 -7.231342 -15.985280 -54.109405 -55.944401 100.437431 -3.517775 1.001402 -21.186878 -0.591010 -0.021346 0.346004 0.725627 -4.363382 13.491138 60.062522 -48.537316 -101.049953 8.497998 4.565569 16.768385 -1.559855 -55.356801 -7.912771 -156.604062 80.280212 -148.015869 -8.583622 -11.448977 -5.393854 0.079891 -0.206563 0.037211 0.195638 -56.921636 11.540415 -110.802987 81.505216 -114.998075 5.283058 -6.334585 5.476146 0.013990 0.254804 0.021202
-48.436230 46.512867 10.821434 176.282058 -32.137349 -3.192169 -0.865464 18.602981 1.766191 -0.143797 2.140835 0.238793 -0.232928 3.550692 0.402687 -0.875045 16.169736 1.753066 -7.097384 21.454733 -0.178079 -12.804522 4.302949 1.650924 0.201461 1.804636 -1.632406 0.758606 -7.204179 -15.996467 -53.891002 -55.964766 100.362250 -3.462170 1.153746 -21.219188 -0.571715 0.022453 0.366224 0.806431 -4.358467 13.430867 59.991059 -48.287041 -100.989732 8.727764 4.281640 17.290574 -1.593561 -55.364846 -7.890199 -156.620479 80.292556 -148.035132 -8.592709 -11.439772 -5.393234 0.079383 -0.213992 0.037837 0.199348 -56.935333 11.544116 -110.765334 81.497835 -114.961810 5.281724 -6.335193 5.499091 0.009664 0.259878 0.019606
